<svg id="edCLQstT2h11" xmlns="http://www.w3.org/2000/svg" xmlns:xlink="http://www.w3.org/1999/xlink" viewBox="0 0 72 241" shape-rendering="geometricPrecision" text-rendering="geometricPrecision" project-id="fbc5234648b94e2badbd3ff0865c2c7d" export-id="a3a8c5704db541698f44e460863f1550" cached="false"><path d="M123.823926,48.583483c0,0-8.393507-.043478-12.209213,0s-10.100014,2.628842-10.100014,2.628842v37.979016q22.309227-41.108811,22.309227-40.607858Z" transform="translate(-96.161583 -45.978208)" stroke="#000" stroke-width="0.6"/><ellipse rx="7.865607" ry="30.384068" transform="translate(37.483786 210.7732)" stroke="#000"/><ellipse rx="2.092486" ry="33.898282" transform="translate(37.483786 208.658852)" fill="#0ff" stroke="#0ff"/><rect width="46.138997" height="25.359566" rx="0" ry="0" transform="matrix(0.857347 0 0 0.857141 16.868226 189.036476)" fill="#484a48" stroke="#484a48"/><path d="M123.823926,48.583483c0,0-8.393507-.043478-12.209213,0s-10.100014,2.628842-10.100014,2.628842v37.979016q22.309227-41.108811,22.309227-40.607858Z" transform="matrix(-1 0 0 1 168.444367 -46.77885)" stroke="#000" stroke-width="0.6"/><path d="M115.430419,48.583483q0-.019072,2.58415,0v8.595626l-2.097872,3.194489q-.486278-11.771043-.486278-11.790115Z" transform="translate(-96.785001 -45.978208)" fill="#0ff" stroke="#0ff" stroke-width="0.6"/><path d="M112.88505,53.191391l.436132,189.676663h-15.405782c0,0-18.429904-101.082934-13.402617-130.169043s28.372267-59.50762,28.372267-59.50762Z" transform="translate(-83.661758 -53.191391)" fill="#747874" stroke="#747874" stroke-width="0.6"/><path d="M112.88505,53.191391l.436132,189.676663h-15.405782c0,0-18.429904-101.082934-13.402617-130.169043s28.372267-59.50762,28.372267-59.50762Z" transform="matrix(-1 0 0 1 155.889405 -52.652889)" fill="#747874" stroke="#3f5787" stroke-width="0.6"/><path d="M99.37498,140.577266L98.209757,240.78646l8.156561,15.147901l1.165222-114.191873-8.15656-1.165222Z" transform="matrix(0.649957 -0.007515 0.011561 0.999933 -40.671587 -46.520405)" fill="#747874" stroke="#747874" stroke-width="0.6"/><path d="M99.37498,140.577266L98.209757,240.78646l8.156561,15.147901l1.165222-114.191873-8.15656-1.165222Z" transform="matrix(-0.5 0 0 1 95.788882 -45.582678)" fill="#747874" stroke="#747874" stroke-width="0.6"/><path d="M111.027212,117.272802h36.21712c0,0,3.571323,106.501398,3.92089,152.644236c0,0-10.580772-13.666551-19.163993-13.982677s-20.974017,12.817453-20.974017,12.817453v-151.479012Z" transform="matrix(0.3 0 0 0.845249 -1.84508 -17.373906)" fill="#0ff" stroke="#0ff" stroke-width="0.6"/><path d="M101.999586,67.391959l.666811,178.055788c0,0-22.176343,1.813545-22.176344-7.83634s0-112.182435,0-112.182435l21.509533-58.037013Z" transform="matrix(-0.654057 0 0 1 113.533309 -48.182773)" fill="#0ff" stroke="#0ff" stroke-width="0.6"/><path d="M101.999586,67.391959l.666811,178.055788c0,0-22.176343,1.813545-22.176344-7.83634s0-112.182435,0-112.182435l21.509533-58.037013Z" transform="matrix(0.654057 0 0 1 -40.219311 -48.804606)" fill="#0ff" stroke="#0ff" stroke-width="0.6"/><rect width="57.322197" height="103.663492" rx="12" ry="12" transform="matrix(0.377092 0 0 1 25.068246 0.3583)" stroke="#010101"/><path d="M111.425342,57.160358q0,1.29269,0,11.204657l-5.356457,23.672562-8.768327,33.948275-8.024976-20.464245l2.877583,2.876633c1.155738-7.284291,5.887472-14.791167,9.481355-18.658052l4.434365-24.522319q5.356457-9.350203,5.356457-8.057511Z" transform="translate(-87.423467 -46.527055)" fill="#090909" stroke="#000" stroke-width="0.6"/><path d="M111.425342,57.160358q0,1.29269,0,11.204657l-5.356457,23.672562-8.768327,33.948275-8.024976-20.464245l2.877583,2.876633c1.155738-7.284291,5.887472-14.791167,9.481355-18.658052l4.434365-24.522319q5.356457-9.350203,5.356457-8.057511Z" transform="matrix(-1 0 0 1 159.416454 -46.527055)" fill="#090909" stroke="#000" stroke-width="0.6"/><path d="M102.045527,51.212325q3.728545-1.347521,3.728545-1.406779t-.125923,30.091859l-3.602622,8.425721v-37.110801Z" transform="translate(-96.785001 -45.978207)" fill="#0ff" stroke="#0ff" stroke-width="0.6"/><path d="M115.430419,48.583483q0-.019072,2.58415,0v8.595626l-2.097872,3.194489q-.486278-11.771043-.486278-11.790115Z" transform="matrix(-1 0 0 1 168.320302 -46.790123)" fill="#0ff" stroke="#0ff" stroke-width="0.6"/><path d="M102.045527,51.212325q3.728545-1.347521,3.728545-1.406779t-.125923,30.091859l-3.602622,8.425721v-37.110801Z" transform="matrix(-1 0 0 1 168.975195 -46.96531)" fill="#0ff" stroke="#0ff" stroke-width="0.6"/></svg>
